# xmcd
#
# Track frame offsets: 
#        150
#        11815
#        25062
#        39783
#        53337
#        66018
#        79455
#        92908
#        105419
#        119388
#        135015
#        150949
#        163170
#        176655
#        190136
#        202584
#        215149
#        228290
#        240758
#        254000
#        265009
#        279153
#        291790
#        303160
#        317437
#
# Disc length: 4423 seconds
#
# Revision: 2
# Processed by: cddbd v1.5.2PL0 Copyright (c) Steve Scherf et al.
# Submitted via: ExactAudioCopyFreeDBPlugin 1.0
#
DISCID=38114519
DTITLE=Carter Family, The - Carter Family 1927-1934 disc E
DYEAR=1934
DGENRE=Folklore
TTITLE0=On A Hill Lone and Gray
TTITLE1=Cowboy Jack
TTITLE2=I'll Be All Smiles Tonight
TTITLE3=Away Out On the Old Saint Sabbath
TTITLE4=Happy Or Lonesome
TTITLE5=One Little Word
TTITLE6=Darling Daisies
TTITLE7=East Virginia Blues, The
TTITLE8=Lovers Return
TTITLE9=It'll Aggravate Your Soul
TTITLE10=Hello Central! Give Me Heaven
TTITLE11=I'm Working On A Building
TTITLE12=You've Been Fooling Me, Baby
TTITLE13=Longing For Old Virginia
TTITLE14=March WInds Goin' To Blow My Blues All Away
TTITLE15=There'll Be Joy, Joy, Joy
TTITLE16=Are You Tired Of Me, My Darling
TTITLE17=My Heart's Tonight In Texas
TTITLE18=There's No Hiding Place Down Here
TTITLE19=Cowboy's Wild Song To His Herd
TTITLE20=Evening Bells Are Ringing, The
TTITLE21=Mountains of Tennessee, The
TTITLE22=I'll Be Home Some Day
TTITLE23=Faded Coat Of Blue
TTITLE24=Sailor Boy
EXTD=YEAR: 1934
EXTT0=
EXTT1=
EXTT2=
EXTT3=
EXTT4=
EXTT5=
EXTT6=
EXTT7=
EXTT8=
EXTT9=
EXTT10=
EXTT11=
EXTT12=
EXTT13=
EXTT14=
EXTT15=
EXTT16=
EXTT17=
EXTT18=
EXTT19=
EXTT20=
EXTT21=
EXTT22=
EXTT23=
EXTT24=
PLAYORDER=
